<mxfile host="app.diagrams.net" modified="2023-08-04T15:31:31.689Z" agent="Mozilla/5.0 (Windows NT 10.0; Win64; x64) AppleWebKit/537.36 (KHTML, like Gecko) Chrome/115.0.0.0 Safari/537.36" etag="JX1kGQD-Qvt8NeeBvOzR" version="21.6.6" type="github">
  <diagram id="C5RBs43oDa-KdzZeNtuy" name="Page-1">
    <mxGraphModel dx="5266" dy="3061" grid="1" gridSize="10" guides="1" tooltips="1" connect="1" arrows="1" fold="1" page="1" pageScale="1" pageWidth="1169" pageHeight="827" math="0" shadow="0">
      <root>
        <mxCell id="WIyWlLk6GJQsqaUBKTNV-0" />
        <mxCell id="WIyWlLk6GJQsqaUBKTNV-1" parent="WIyWlLk6GJQsqaUBKTNV-0" />
        <mxCell id="9GJHesz0LtEHOZd1gxFE-13" style="edgeStyle=orthogonalEdgeStyle;rounded=0;orthogonalLoop=1;jettySize=auto;html=1;exitX=0;exitY=0.5;exitDx=0;exitDy=0;entryX=1.006;entryY=0.49;entryDx=0;entryDy=0;entryPerimeter=0;shape=link;" edge="1" parent="WIyWlLk6GJQsqaUBKTNV-1" source="9GJHesz0LtEHOZd1gxFE-0" target="9GJHesz0LtEHOZd1gxFE-7">
          <mxGeometry relative="1" as="geometry" />
        </mxCell>
        <mxCell id="9GJHesz0LtEHOZd1gxFE-17" style="edgeStyle=orthogonalEdgeStyle;rounded=0;orthogonalLoop=1;jettySize=auto;html=1;entryX=0.054;entryY=0.51;entryDx=0;entryDy=0;entryPerimeter=0;shape=link;" edge="1" parent="WIyWlLk6GJQsqaUBKTNV-1" source="9GJHesz0LtEHOZd1gxFE-0" target="9GJHesz0LtEHOZd1gxFE-8">
          <mxGeometry relative="1" as="geometry" />
        </mxCell>
        <mxCell id="9GJHesz0LtEHOZd1gxFE-27" style="edgeStyle=orthogonalEdgeStyle;rounded=0;orthogonalLoop=1;jettySize=auto;html=1;exitX=0.25;exitY=0;exitDx=0;exitDy=0;entryX=1;entryY=0.5;entryDx=0;entryDy=0;endArrow=none;endFill=0;" edge="1" parent="WIyWlLk6GJQsqaUBKTNV-1" source="9GJHesz0LtEHOZd1gxFE-0" target="9GJHesz0LtEHOZd1gxFE-26">
          <mxGeometry relative="1" as="geometry">
            <Array as="points">
              <mxPoint x="635" y="-290" />
              <mxPoint x="635" y="-500" />
            </Array>
          </mxGeometry>
        </mxCell>
        <mxCell id="9GJHesz0LtEHOZd1gxFE-32" style="edgeStyle=orthogonalEdgeStyle;rounded=0;orthogonalLoop=1;jettySize=auto;html=1;entryX=0;entryY=0.5;entryDx=0;entryDy=0;endArrow=none;endFill=0;" edge="1" parent="WIyWlLk6GJQsqaUBKTNV-1" source="9GJHesz0LtEHOZd1gxFE-0" target="9GJHesz0LtEHOZd1gxFE-24">
          <mxGeometry relative="1" as="geometry" />
        </mxCell>
        <mxCell id="9GJHesz0LtEHOZd1gxFE-0" value="Cliente" style="rounded=0;whiteSpace=wrap;html=1;" vertex="1" parent="WIyWlLk6GJQsqaUBKTNV-1">
          <mxGeometry x="580" y="-290" width="120" height="60" as="geometry" />
        </mxCell>
        <mxCell id="9GJHesz0LtEHOZd1gxFE-69" style="edgeStyle=orthogonalEdgeStyle;rounded=0;orthogonalLoop=1;jettySize=auto;html=1;entryX=0.018;entryY=0.462;entryDx=0;entryDy=0;entryPerimeter=0;exitX=0.489;exitY=-0.032;exitDx=0;exitDy=0;exitPerimeter=0;shape=link;" edge="1" parent="WIyWlLk6GJQsqaUBKTNV-1" source="9GJHesz0LtEHOZd1gxFE-1" target="9GJHesz0LtEHOZd1gxFE-68">
          <mxGeometry relative="1" as="geometry">
            <Array as="points">
              <mxPoint x="640" y="-62" />
              <mxPoint x="640" y="-142" />
            </Array>
          </mxGeometry>
        </mxCell>
        <mxCell id="9GJHesz0LtEHOZd1gxFE-127" style="edgeStyle=orthogonalEdgeStyle;rounded=0;orthogonalLoop=1;jettySize=auto;html=1;entryX=1;entryY=0.5;entryDx=0;entryDy=0;endArrow=none;endFill=0;" edge="1" parent="WIyWlLk6GJQsqaUBKTNV-1" source="9GJHesz0LtEHOZd1gxFE-1" target="9GJHesz0LtEHOZd1gxFE-124">
          <mxGeometry relative="1" as="geometry">
            <mxPoint x="640" y="220" as="targetPoint" />
            <Array as="points">
              <mxPoint x="630" y="220" />
            </Array>
          </mxGeometry>
        </mxCell>
        <mxCell id="9GJHesz0LtEHOZd1gxFE-128" style="edgeStyle=orthogonalEdgeStyle;rounded=0;orthogonalLoop=1;jettySize=auto;html=1;entryX=0;entryY=0.5;entryDx=0;entryDy=0;endArrow=none;endFill=0;" edge="1" parent="WIyWlLk6GJQsqaUBKTNV-1" source="9GJHesz0LtEHOZd1gxFE-1" target="9GJHesz0LtEHOZd1gxFE-126">
          <mxGeometry relative="1" as="geometry" />
        </mxCell>
        <mxCell id="9GJHesz0LtEHOZd1gxFE-1" value="Veiculo" style="rounded=0;whiteSpace=wrap;html=1;" vertex="1" parent="WIyWlLk6GJQsqaUBKTNV-1">
          <mxGeometry x="580" y="-60" width="120" height="60" as="geometry" />
        </mxCell>
        <mxCell id="9GJHesz0LtEHOZd1gxFE-89" style="edgeStyle=orthogonalEdgeStyle;rounded=0;orthogonalLoop=1;jettySize=auto;html=1;entryX=0.009;entryY=0.54;entryDx=0;entryDy=0;entryPerimeter=0;shape=link;" edge="1" parent="WIyWlLk6GJQsqaUBKTNV-1" source="9GJHesz0LtEHOZd1gxFE-2" target="9GJHesz0LtEHOZd1gxFE-88">
          <mxGeometry relative="1" as="geometry">
            <Array as="points">
              <mxPoint x="260" y="362" />
            </Array>
          </mxGeometry>
        </mxCell>
        <mxCell id="9GJHesz0LtEHOZd1gxFE-2" value="TipoVeiculo" style="rounded=0;whiteSpace=wrap;html=1;" vertex="1" parent="WIyWlLk6GJQsqaUBKTNV-1">
          <mxGeometry x="200" width="120" height="60" as="geometry" />
        </mxCell>
        <mxCell id="9GJHesz0LtEHOZd1gxFE-3" value="Filial" style="rounded=0;whiteSpace=wrap;html=1;" vertex="1" parent="WIyWlLk6GJQsqaUBKTNV-1">
          <mxGeometry x="940" y="-60" width="120" height="60" as="geometry" />
        </mxCell>
        <mxCell id="9GJHesz0LtEHOZd1gxFE-57" style="edgeStyle=orthogonalEdgeStyle;rounded=0;orthogonalLoop=1;jettySize=auto;html=1;entryX=1;entryY=0.5;entryDx=0;entryDy=0;endArrow=none;endFill=0;" edge="1" parent="WIyWlLk6GJQsqaUBKTNV-1" source="9GJHesz0LtEHOZd1gxFE-4" target="9GJHesz0LtEHOZd1gxFE-64">
          <mxGeometry relative="1" as="geometry" />
        </mxCell>
        <mxCell id="9GJHesz0LtEHOZd1gxFE-58" style="edgeStyle=orthogonalEdgeStyle;rounded=0;orthogonalLoop=1;jettySize=auto;html=1;endArrow=none;endFill=0;entryX=0;entryY=0.5;entryDx=0;entryDy=0;" edge="1" parent="WIyWlLk6GJQsqaUBKTNV-1" source="9GJHesz0LtEHOZd1gxFE-4" target="9GJHesz0LtEHOZd1gxFE-63">
          <mxGeometry relative="1" as="geometry">
            <mxPoint x="290" y="-580" as="targetPoint" />
            <Array as="points">
              <mxPoint x="280" y="-660" />
            </Array>
          </mxGeometry>
        </mxCell>
        <mxCell id="9GJHesz0LtEHOZd1gxFE-4" value="Aluguel" style="rounded=0;whiteSpace=wrap;html=1;" vertex="1" parent="WIyWlLk6GJQsqaUBKTNV-1">
          <mxGeometry x="210" y="-290" width="120" height="60" as="geometry" />
        </mxCell>
        <mxCell id="9GJHesz0LtEHOZd1gxFE-102" style="edgeStyle=orthogonalEdgeStyle;rounded=0;orthogonalLoop=1;jettySize=auto;html=1;entryX=0.002;entryY=0.448;entryDx=0;entryDy=0;entryPerimeter=0;endArrow=none;endFill=0;" edge="1" parent="WIyWlLk6GJQsqaUBKTNV-1" source="9GJHesz0LtEHOZd1gxFE-5" target="9GJHesz0LtEHOZd1gxFE-97">
          <mxGeometry relative="1" as="geometry">
            <Array as="points">
              <mxPoint x="1000" y="-523" />
            </Array>
          </mxGeometry>
        </mxCell>
        <mxCell id="9GJHesz0LtEHOZd1gxFE-103" style="edgeStyle=orthogonalEdgeStyle;rounded=0;orthogonalLoop=1;jettySize=auto;html=1;entryX=1;entryY=0.5;entryDx=0;entryDy=0;endArrow=none;endFill=0;" edge="1" parent="WIyWlLk6GJQsqaUBKTNV-1" source="9GJHesz0LtEHOZd1gxFE-5" target="9GJHesz0LtEHOZd1gxFE-101">
          <mxGeometry relative="1" as="geometry">
            <Array as="points">
              <mxPoint x="990" y="-600" />
            </Array>
          </mxGeometry>
        </mxCell>
        <mxCell id="9GJHesz0LtEHOZd1gxFE-5" value="Reserva" style="rounded=0;whiteSpace=wrap;html=1;" vertex="1" parent="WIyWlLk6GJQsqaUBKTNV-1">
          <mxGeometry x="940" y="-290" width="120" height="60" as="geometry" />
        </mxCell>
        <mxCell id="9GJHesz0LtEHOZd1gxFE-14" style="edgeStyle=orthogonalEdgeStyle;rounded=0;orthogonalLoop=1;jettySize=auto;html=1;entryX=1;entryY=0.5;entryDx=0;entryDy=0;endArrow=none;endFill=0;" edge="1" parent="WIyWlLk6GJQsqaUBKTNV-1" source="9GJHesz0LtEHOZd1gxFE-7" target="9GJHesz0LtEHOZd1gxFE-4">
          <mxGeometry relative="1" as="geometry" />
        </mxCell>
        <mxCell id="9GJHesz0LtEHOZd1gxFE-7" value="Cliente faz aluguel" style="html=1;whiteSpace=wrap;aspect=fixed;shape=isoRectangle;" vertex="1" parent="WIyWlLk6GJQsqaUBKTNV-1">
          <mxGeometry x="410" y="-290" width="100" height="60" as="geometry" />
        </mxCell>
        <mxCell id="9GJHesz0LtEHOZd1gxFE-18" style="edgeStyle=orthogonalEdgeStyle;rounded=0;orthogonalLoop=1;jettySize=auto;html=1;entryX=0;entryY=0.5;entryDx=0;entryDy=0;endArrow=none;endFill=0;" edge="1" parent="WIyWlLk6GJQsqaUBKTNV-1" source="9GJHesz0LtEHOZd1gxFE-8" target="9GJHesz0LtEHOZd1gxFE-5">
          <mxGeometry relative="1" as="geometry" />
        </mxCell>
        <mxCell id="9GJHesz0LtEHOZd1gxFE-8" value="Cliente faz reserva" style="html=1;whiteSpace=wrap;aspect=fixed;shape=isoRectangle;" vertex="1" parent="WIyWlLk6GJQsqaUBKTNV-1">
          <mxGeometry x="770" y="-290" width="100" height="60" as="geometry" />
        </mxCell>
        <mxCell id="9GJHesz0LtEHOZd1gxFE-73" style="edgeStyle=orthogonalEdgeStyle;rounded=0;orthogonalLoop=1;jettySize=auto;html=1;entryX=0;entryY=0.5;entryDx=0;entryDy=0;endArrow=none;endFill=0;" edge="1" parent="WIyWlLk6GJQsqaUBKTNV-1" source="9GJHesz0LtEHOZd1gxFE-10" target="9GJHesz0LtEHOZd1gxFE-1">
          <mxGeometry relative="1" as="geometry" />
        </mxCell>
        <mxCell id="9GJHesz0LtEHOZd1gxFE-74" style="edgeStyle=orthogonalEdgeStyle;rounded=0;orthogonalLoop=1;jettySize=auto;html=1;entryX=0.5;entryY=1;entryDx=0;entryDy=0;endArrow=none;endFill=0;" edge="1" parent="WIyWlLk6GJQsqaUBKTNV-1" source="9GJHesz0LtEHOZd1gxFE-10" target="9GJHesz0LtEHOZd1gxFE-4">
          <mxGeometry relative="1" as="geometry" />
        </mxCell>
        <mxCell id="9GJHesz0LtEHOZd1gxFE-10" value="Veiculo Ã© alugado em aluguel" style="html=1;whiteSpace=wrap;aspect=fixed;shape=isoRectangle;" vertex="1" parent="WIyWlLk6GJQsqaUBKTNV-1">
          <mxGeometry x="390" y="-195" width="100" height="60" as="geometry" />
        </mxCell>
        <mxCell id="9GJHesz0LtEHOZd1gxFE-15" value="N" style="text;html=1;strokeColor=none;fillColor=none;align=center;verticalAlign=middle;whiteSpace=wrap;rounded=0;" vertex="1" parent="WIyWlLk6GJQsqaUBKTNV-1">
          <mxGeometry x="490" y="-300" width="60" height="30" as="geometry" />
        </mxCell>
        <mxCell id="9GJHesz0LtEHOZd1gxFE-16" value="1" style="text;html=1;strokeColor=none;fillColor=none;align=center;verticalAlign=middle;whiteSpace=wrap;rounded=0;" vertex="1" parent="WIyWlLk6GJQsqaUBKTNV-1">
          <mxGeometry x="360" y="-300" width="60" height="30" as="geometry" />
        </mxCell>
        <mxCell id="9GJHesz0LtEHOZd1gxFE-19" value="N" style="text;html=1;strokeColor=none;fillColor=none;align=center;verticalAlign=middle;whiteSpace=wrap;rounded=0;" vertex="1" parent="WIyWlLk6GJQsqaUBKTNV-1">
          <mxGeometry x="730" y="-300" width="60" height="30" as="geometry" />
        </mxCell>
        <mxCell id="9GJHesz0LtEHOZd1gxFE-20" value="1" style="text;html=1;strokeColor=none;fillColor=none;align=center;verticalAlign=middle;whiteSpace=wrap;rounded=0;" vertex="1" parent="WIyWlLk6GJQsqaUBKTNV-1">
          <mxGeometry x="850" y="-300" width="60" height="30" as="geometry" />
        </mxCell>
        <mxCell id="9GJHesz0LtEHOZd1gxFE-31" style="edgeStyle=orthogonalEdgeStyle;rounded=0;orthogonalLoop=1;jettySize=auto;html=1;endArrow=none;endFill=0;" edge="1" parent="WIyWlLk6GJQsqaUBKTNV-1" source="9GJHesz0LtEHOZd1gxFE-21">
          <mxGeometry relative="1" as="geometry">
            <mxPoint x="620" y="-340" as="targetPoint" />
          </mxGeometry>
        </mxCell>
        <mxCell id="9GJHesz0LtEHOZd1gxFE-21" value="Sexo" style="ellipse;whiteSpace=wrap;html=1;" vertex="1" parent="WIyWlLk6GJQsqaUBKTNV-1">
          <mxGeometry x="515" y="-370" width="100" height="60" as="geometry" />
        </mxCell>
        <mxCell id="9GJHesz0LtEHOZd1gxFE-34" style="edgeStyle=orthogonalEdgeStyle;rounded=0;orthogonalLoop=1;jettySize=auto;html=1;endArrow=none;endFill=0;" edge="1" parent="WIyWlLk6GJQsqaUBKTNV-1" source="9GJHesz0LtEHOZd1gxFE-22">
          <mxGeometry relative="1" as="geometry">
            <mxPoint x="639.9999999999999" y="-340" as="targetPoint" />
          </mxGeometry>
        </mxCell>
        <mxCell id="9GJHesz0LtEHOZd1gxFE-22" value="Tipo(pj ou pf)" style="ellipse;whiteSpace=wrap;html=1;" vertex="1" parent="WIyWlLk6GJQsqaUBKTNV-1">
          <mxGeometry x="665" y="-370" width="100" height="60" as="geometry" />
        </mxCell>
        <mxCell id="9GJHesz0LtEHOZd1gxFE-33" style="edgeStyle=orthogonalEdgeStyle;rounded=0;orthogonalLoop=1;jettySize=auto;html=1;endArrow=none;endFill=0;" edge="1" parent="WIyWlLk6GJQsqaUBKTNV-1" source="9GJHesz0LtEHOZd1gxFE-23">
          <mxGeometry relative="1" as="geometry">
            <mxPoint x="639.9999999999999" y="-420" as="targetPoint" />
          </mxGeometry>
        </mxCell>
        <mxCell id="9GJHesz0LtEHOZd1gxFE-23" value="Endereco" style="ellipse;whiteSpace=wrap;html=1;" vertex="1" parent="WIyWlLk6GJQsqaUBKTNV-1">
          <mxGeometry x="665" y="-450" width="100" height="60" as="geometry" />
        </mxCell>
        <mxCell id="9GJHesz0LtEHOZd1gxFE-24" value="DataNascimento" style="ellipse;whiteSpace=wrap;html=1;" vertex="1" parent="WIyWlLk6GJQsqaUBKTNV-1">
          <mxGeometry x="665" y="-530" width="100" height="60" as="geometry" />
        </mxCell>
        <mxCell id="9GJHesz0LtEHOZd1gxFE-30" style="edgeStyle=orthogonalEdgeStyle;rounded=0;orthogonalLoop=1;jettySize=auto;html=1;endArrow=none;endFill=0;" edge="1" parent="WIyWlLk6GJQsqaUBKTNV-1" source="9GJHesz0LtEHOZd1gxFE-25">
          <mxGeometry relative="1" as="geometry">
            <mxPoint x="620" y="-420" as="targetPoint" />
          </mxGeometry>
        </mxCell>
        <mxCell id="9GJHesz0LtEHOZd1gxFE-25" value="Nome" style="ellipse;whiteSpace=wrap;html=1;" vertex="1" parent="WIyWlLk6GJQsqaUBKTNV-1">
          <mxGeometry x="515" y="-450" width="100" height="60" as="geometry" />
        </mxCell>
        <mxCell id="9GJHesz0LtEHOZd1gxFE-26" value="Codigo" style="ellipse;whiteSpace=wrap;html=1;" vertex="1" parent="WIyWlLk6GJQsqaUBKTNV-1">
          <mxGeometry x="515" y="-530" width="100" height="60" as="geometry" />
        </mxCell>
        <mxCell id="9GJHesz0LtEHOZd1gxFE-145" style="edgeStyle=orthogonalEdgeStyle;rounded=0;orthogonalLoop=1;jettySize=auto;html=1;endArrow=none;endFill=0;" edge="1" parent="WIyWlLk6GJQsqaUBKTNV-1" source="9GJHesz0LtEHOZd1gxFE-36">
          <mxGeometry relative="1" as="geometry">
            <mxPoint x="120" y="-230" as="targetPoint" />
          </mxGeometry>
        </mxCell>
        <mxCell id="9GJHesz0LtEHOZd1gxFE-36" value="NumeroPassageiros" style="ellipse;whiteSpace=wrap;html=1;" vertex="1" parent="WIyWlLk6GJQsqaUBKTNV-1">
          <mxGeometry x="-30" y="-260" width="100" height="60" as="geometry" />
        </mxCell>
        <mxCell id="9GJHesz0LtEHOZd1gxFE-146" style="edgeStyle=orthogonalEdgeStyle;rounded=0;orthogonalLoop=1;jettySize=auto;html=1;endArrow=none;endFill=0;" edge="1" parent="WIyWlLk6GJQsqaUBKTNV-1" source="9GJHesz0LtEHOZd1gxFE-38">
          <mxGeometry relative="1" as="geometry">
            <mxPoint x="120" y="-150" as="targetPoint" />
          </mxGeometry>
        </mxCell>
        <mxCell id="9GJHesz0LtEHOZd1gxFE-38" value="NumeroPortas" style="ellipse;whiteSpace=wrap;html=1;" vertex="1" parent="WIyWlLk6GJQsqaUBKTNV-1">
          <mxGeometry x="-30" y="-180" width="100" height="60" as="geometry" />
        </mxCell>
        <mxCell id="9GJHesz0LtEHOZd1gxFE-142" style="edgeStyle=orthogonalEdgeStyle;rounded=0;orthogonalLoop=1;jettySize=auto;html=1;entryX=0;entryY=0.5;entryDx=0;entryDy=0;endArrow=none;endFill=0;" edge="1" parent="WIyWlLk6GJQsqaUBKTNV-1" source="9GJHesz0LtEHOZd1gxFE-40" target="9GJHesz0LtEHOZd1gxFE-2">
          <mxGeometry relative="1" as="geometry">
            <Array as="points">
              <mxPoint x="120" y="-415" />
              <mxPoint x="120" y="30" />
            </Array>
          </mxGeometry>
        </mxCell>
        <mxCell id="9GJHesz0LtEHOZd1gxFE-40" value="Tipo" style="ellipse;whiteSpace=wrap;html=1;" vertex="1" parent="WIyWlLk6GJQsqaUBKTNV-1">
          <mxGeometry x="-30" y="-445" width="100" height="60" as="geometry" />
        </mxCell>
        <mxCell id="9GJHesz0LtEHOZd1gxFE-113" style="edgeStyle=orthogonalEdgeStyle;rounded=0;orthogonalLoop=1;jettySize=auto;html=1;entryX=0.5;entryY=1;entryDx=0;entryDy=0;endArrow=none;endFill=0;" edge="1" parent="WIyWlLk6GJQsqaUBKTNV-1" source="9GJHesz0LtEHOZd1gxFE-41" target="9GJHesz0LtEHOZd1gxFE-3">
          <mxGeometry relative="1" as="geometry" />
        </mxCell>
        <mxCell id="9GJHesz0LtEHOZd1gxFE-41" value="Localizacao" style="ellipse;whiteSpace=wrap;html=1;" vertex="1" parent="WIyWlLk6GJQsqaUBKTNV-1">
          <mxGeometry x="820" y="70" width="100" height="60" as="geometry" />
        </mxCell>
        <mxCell id="9GJHesz0LtEHOZd1gxFE-144" style="edgeStyle=orthogonalEdgeStyle;rounded=0;orthogonalLoop=1;jettySize=auto;html=1;endArrow=none;endFill=0;" edge="1" parent="WIyWlLk6GJQsqaUBKTNV-1" source="9GJHesz0LtEHOZd1gxFE-43">
          <mxGeometry relative="1" as="geometry">
            <mxPoint x="120" y="-320" as="targetPoint" />
          </mxGeometry>
        </mxCell>
        <mxCell id="9GJHesz0LtEHOZd1gxFE-43" value="Tamanho" style="ellipse;whiteSpace=wrap;html=1;" vertex="1" parent="WIyWlLk6GJQsqaUBKTNV-1">
          <mxGeometry x="-30" y="-350" width="100" height="60" as="geometry" />
        </mxCell>
        <mxCell id="9GJHesz0LtEHOZd1gxFE-114" style="edgeStyle=orthogonalEdgeStyle;rounded=0;orthogonalLoop=1;jettySize=auto;html=1;endArrow=none;endFill=0;" edge="1" parent="WIyWlLk6GJQsqaUBKTNV-1" source="9GJHesz0LtEHOZd1gxFE-44">
          <mxGeometry relative="1" as="geometry">
            <mxPoint x="1000" y="20" as="targetPoint" />
          </mxGeometry>
        </mxCell>
        <mxCell id="9GJHesz0LtEHOZd1gxFE-44" value="Numero" style="ellipse;whiteSpace=wrap;html=1;" vertex="1" parent="WIyWlLk6GJQsqaUBKTNV-1">
          <mxGeometry x="820" y="-10" width="100" height="60" as="geometry" />
        </mxCell>
        <mxCell id="9GJHesz0LtEHOZd1gxFE-45" style="edgeStyle=orthogonalEdgeStyle;rounded=0;orthogonalLoop=1;jettySize=auto;html=1;endArrow=none;endFill=0;" edge="1" parent="WIyWlLk6GJQsqaUBKTNV-1" source="9GJHesz0LtEHOZd1gxFE-46">
          <mxGeometry relative="1" as="geometry">
            <mxPoint x="255" y="-340" as="targetPoint" />
          </mxGeometry>
        </mxCell>
        <mxCell id="9GJHesz0LtEHOZd1gxFE-46" value="DataEntregaEfetiva" style="ellipse;whiteSpace=wrap;html=1;" vertex="1" parent="WIyWlLk6GJQsqaUBKTNV-1">
          <mxGeometry x="140" y="-370" width="110" height="60" as="geometry" />
        </mxCell>
        <mxCell id="9GJHesz0LtEHOZd1gxFE-59" style="edgeStyle=orthogonalEdgeStyle;rounded=0;orthogonalLoop=1;jettySize=auto;html=1;endArrow=none;endFill=0;" edge="1" parent="WIyWlLk6GJQsqaUBKTNV-1" source="9GJHesz0LtEHOZd1gxFE-48">
          <mxGeometry relative="1" as="geometry">
            <mxPoint x="290" y="-340" as="targetPoint" />
          </mxGeometry>
        </mxCell>
        <mxCell id="9GJHesz0LtEHOZd1gxFE-48" value="PontoEntrega" style="ellipse;whiteSpace=wrap;html=1;" vertex="1" parent="WIyWlLk6GJQsqaUBKTNV-1">
          <mxGeometry x="300" y="-370" width="100" height="60" as="geometry" />
        </mxCell>
        <mxCell id="9GJHesz0LtEHOZd1gxFE-60" style="edgeStyle=orthogonalEdgeStyle;rounded=0;orthogonalLoop=1;jettySize=auto;html=1;endArrow=none;endFill=0;" edge="1" parent="WIyWlLk6GJQsqaUBKTNV-1" source="9GJHesz0LtEHOZd1gxFE-50">
          <mxGeometry relative="1" as="geometry">
            <mxPoint x="290" y="-420" as="targetPoint" />
          </mxGeometry>
        </mxCell>
        <mxCell id="9GJHesz0LtEHOZd1gxFE-50" value="VeiculoAlugado" style="ellipse;whiteSpace=wrap;html=1;" vertex="1" parent="WIyWlLk6GJQsqaUBKTNV-1">
          <mxGeometry x="300" y="-450" width="100" height="60" as="geometry" />
        </mxCell>
        <mxCell id="9GJHesz0LtEHOZd1gxFE-61" style="edgeStyle=orthogonalEdgeStyle;rounded=0;orthogonalLoop=1;jettySize=auto;html=1;endArrow=none;endFill=0;" edge="1" parent="WIyWlLk6GJQsqaUBKTNV-1" source="9GJHesz0LtEHOZd1gxFE-51">
          <mxGeometry relative="1" as="geometry">
            <mxPoint x="290" y="-500" as="targetPoint" />
          </mxGeometry>
        </mxCell>
        <mxCell id="9GJHesz0LtEHOZd1gxFE-51" value="Cliente" style="ellipse;whiteSpace=wrap;html=1;" vertex="1" parent="WIyWlLk6GJQsqaUBKTNV-1">
          <mxGeometry x="300" y="-530" width="100" height="60" as="geometry" />
        </mxCell>
        <mxCell id="9GJHesz0LtEHOZd1gxFE-52" style="edgeStyle=orthogonalEdgeStyle;rounded=0;orthogonalLoop=1;jettySize=auto;html=1;endArrow=none;endFill=0;" edge="1" parent="WIyWlLk6GJQsqaUBKTNV-1" source="9GJHesz0LtEHOZd1gxFE-53">
          <mxGeometry relative="1" as="geometry">
            <mxPoint x="255" y="-420" as="targetPoint" />
          </mxGeometry>
        </mxCell>
        <mxCell id="9GJHesz0LtEHOZd1gxFE-53" value="DataEntregaPrevista" style="ellipse;whiteSpace=wrap;html=1;" vertex="1" parent="WIyWlLk6GJQsqaUBKTNV-1">
          <mxGeometry x="140" y="-450" width="110" height="60" as="geometry" />
        </mxCell>
        <mxCell id="9GJHesz0LtEHOZd1gxFE-62" style="edgeStyle=orthogonalEdgeStyle;rounded=0;orthogonalLoop=1;jettySize=auto;html=1;endArrow=none;endFill=0;" edge="1" parent="WIyWlLk6GJQsqaUBKTNV-1" source="9GJHesz0LtEHOZd1gxFE-54">
          <mxGeometry relative="1" as="geometry">
            <mxPoint x="260" y="-500" as="targetPoint" />
          </mxGeometry>
        </mxCell>
        <mxCell id="9GJHesz0LtEHOZd1gxFE-54" value="DataAluguel" style="ellipse;whiteSpace=wrap;html=1;" vertex="1" parent="WIyWlLk6GJQsqaUBKTNV-1">
          <mxGeometry x="150" y="-530" width="100" height="60" as="geometry" />
        </mxCell>
        <mxCell id="9GJHesz0LtEHOZd1gxFE-66" style="edgeStyle=orthogonalEdgeStyle;rounded=0;orthogonalLoop=1;jettySize=auto;html=1;endArrow=none;endFill=0;" edge="1" parent="WIyWlLk6GJQsqaUBKTNV-1" source="9GJHesz0LtEHOZd1gxFE-55">
          <mxGeometry relative="1" as="geometry">
            <mxPoint x="290" y="-579.9999999999999" as="targetPoint" />
          </mxGeometry>
        </mxCell>
        <mxCell id="9GJHesz0LtEHOZd1gxFE-55" value="Motorista" style="ellipse;whiteSpace=wrap;html=1;" vertex="1" parent="WIyWlLk6GJQsqaUBKTNV-1">
          <mxGeometry x="300" y="-610" width="100" height="60" as="geometry" />
        </mxCell>
        <mxCell id="9GJHesz0LtEHOZd1gxFE-67" style="edgeStyle=orthogonalEdgeStyle;rounded=0;orthogonalLoop=1;jettySize=auto;html=1;endArrow=none;endFill=0;" edge="1" parent="WIyWlLk6GJQsqaUBKTNV-1" source="9GJHesz0LtEHOZd1gxFE-56">
          <mxGeometry relative="1" as="geometry">
            <mxPoint x="260" y="-579.9999999999999" as="targetPoint" />
          </mxGeometry>
        </mxCell>
        <mxCell id="9GJHesz0LtEHOZd1gxFE-56" value="NumeroAluguel" style="ellipse;whiteSpace=wrap;html=1;" vertex="1" parent="WIyWlLk6GJQsqaUBKTNV-1">
          <mxGeometry x="150" y="-610" width="100" height="60" as="geometry" />
        </mxCell>
        <mxCell id="9GJHesz0LtEHOZd1gxFE-63" value="DataVencimento&lt;br&gt;Habilitacao" style="ellipse;whiteSpace=wrap;html=1;" vertex="1" parent="WIyWlLk6GJQsqaUBKTNV-1">
          <mxGeometry x="300" y="-690" width="100" height="60" as="geometry" />
        </mxCell>
        <mxCell id="9GJHesz0LtEHOZd1gxFE-64" value="Numero&lt;br&gt;Habilitacao" style="ellipse;whiteSpace=wrap;html=1;" vertex="1" parent="WIyWlLk6GJQsqaUBKTNV-1">
          <mxGeometry x="150" y="-690" width="100" height="60" as="geometry" />
        </mxCell>
        <mxCell id="9GJHesz0LtEHOZd1gxFE-65" style="edgeStyle=orthogonalEdgeStyle;rounded=0;orthogonalLoop=1;jettySize=auto;html=1;endArrow=none;endFill=0;entryX=0;entryY=0.5;entryDx=0;entryDy=0;" edge="1" parent="WIyWlLk6GJQsqaUBKTNV-1">
          <mxGeometry relative="1" as="geometry">
            <mxPoint x="279.97" y="-290" as="sourcePoint" />
            <mxPoint x="299.97" y="-660" as="targetPoint" />
            <Array as="points">
              <mxPoint x="280" y="-660" />
            </Array>
          </mxGeometry>
        </mxCell>
        <mxCell id="9GJHesz0LtEHOZd1gxFE-70" style="edgeStyle=orthogonalEdgeStyle;rounded=0;orthogonalLoop=1;jettySize=auto;html=1;entryX=0.5;entryY=0;entryDx=0;entryDy=0;endArrow=none;endFill=0;" edge="1" parent="WIyWlLk6GJQsqaUBKTNV-1" source="9GJHesz0LtEHOZd1gxFE-68" target="9GJHesz0LtEHOZd1gxFE-3">
          <mxGeometry relative="1" as="geometry" />
        </mxCell>
        <mxCell id="9GJHesz0LtEHOZd1gxFE-68" value="Veiculo pertence a filial" style="html=1;whiteSpace=wrap;aspect=fixed;shape=isoRectangle;" vertex="1" parent="WIyWlLk6GJQsqaUBKTNV-1">
          <mxGeometry x="770" y="-170" width="100" height="60" as="geometry" />
        </mxCell>
        <mxCell id="9GJHesz0LtEHOZd1gxFE-71" value="N" style="text;html=1;strokeColor=none;fillColor=none;align=center;verticalAlign=middle;whiteSpace=wrap;rounded=0;" vertex="1" parent="WIyWlLk6GJQsqaUBKTNV-1">
          <mxGeometry x="720" y="-180" width="60" height="30" as="geometry" />
        </mxCell>
        <mxCell id="9GJHesz0LtEHOZd1gxFE-72" value="1" style="text;html=1;strokeColor=none;fillColor=none;align=center;verticalAlign=middle;whiteSpace=wrap;rounded=0;" vertex="1" parent="WIyWlLk6GJQsqaUBKTNV-1">
          <mxGeometry x="860" y="-180" width="60" height="30" as="geometry" />
        </mxCell>
        <mxCell id="9GJHesz0LtEHOZd1gxFE-75" value="1" style="text;html=1;strokeColor=none;fillColor=none;align=center;verticalAlign=middle;whiteSpace=wrap;rounded=0;" vertex="1" parent="WIyWlLk6GJQsqaUBKTNV-1">
          <mxGeometry x="340" y="-180" width="60" height="30" as="geometry" />
        </mxCell>
        <mxCell id="9GJHesz0LtEHOZd1gxFE-76" value="1" style="text;html=1;strokeColor=none;fillColor=none;align=center;verticalAlign=middle;whiteSpace=wrap;rounded=0;" vertex="1" parent="WIyWlLk6GJQsqaUBKTNV-1">
          <mxGeometry x="480" y="-180" width="60" height="30" as="geometry" />
        </mxCell>
        <mxCell id="9GJHesz0LtEHOZd1gxFE-78" style="edgeStyle=orthogonalEdgeStyle;rounded=0;orthogonalLoop=1;jettySize=auto;html=1;shape=link;" edge="1" parent="WIyWlLk6GJQsqaUBKTNV-1" source="9GJHesz0LtEHOZd1gxFE-77" target="9GJHesz0LtEHOZd1gxFE-1">
          <mxGeometry relative="1" as="geometry" />
        </mxCell>
        <mxCell id="9GJHesz0LtEHOZd1gxFE-79" style="edgeStyle=orthogonalEdgeStyle;rounded=0;orthogonalLoop=1;jettySize=auto;html=1;entryX=1;entryY=0.5;entryDx=0;entryDy=0;shape=link;" edge="1" parent="WIyWlLk6GJQsqaUBKTNV-1" source="9GJHesz0LtEHOZd1gxFE-77" target="9GJHesz0LtEHOZd1gxFE-2">
          <mxGeometry relative="1" as="geometry" />
        </mxCell>
        <mxCell id="9GJHesz0LtEHOZd1gxFE-77" value="TipoVeiculo possui veiculo" style="html=1;whiteSpace=wrap;aspect=fixed;shape=isoRectangle;" vertex="1" parent="WIyWlLk6GJQsqaUBKTNV-1">
          <mxGeometry x="390" width="100" height="60" as="geometry" />
        </mxCell>
        <mxCell id="9GJHesz0LtEHOZd1gxFE-80" value="N" style="text;html=1;strokeColor=none;fillColor=none;align=center;verticalAlign=middle;whiteSpace=wrap;rounded=0;" vertex="1" parent="WIyWlLk6GJQsqaUBKTNV-1">
          <mxGeometry x="340" y="-10" width="60" height="30" as="geometry" />
        </mxCell>
        <mxCell id="9GJHesz0LtEHOZd1gxFE-81" value="N" style="text;html=1;strokeColor=none;fillColor=none;align=center;verticalAlign=middle;whiteSpace=wrap;rounded=0;" vertex="1" parent="WIyWlLk6GJQsqaUBKTNV-1">
          <mxGeometry x="470" y="-10" width="60" height="30" as="geometry" />
        </mxCell>
        <mxCell id="9GJHesz0LtEHOZd1gxFE-83" style="edgeStyle=orthogonalEdgeStyle;rounded=0;orthogonalLoop=1;jettySize=auto;html=1;entryX=0.417;entryY=1;entryDx=0;entryDy=0;entryPerimeter=0;shape=link;" edge="1" parent="WIyWlLk6GJQsqaUBKTNV-1" source="9GJHesz0LtEHOZd1gxFE-82" target="9GJHesz0LtEHOZd1gxFE-4">
          <mxGeometry relative="1" as="geometry" />
        </mxCell>
        <mxCell id="9GJHesz0LtEHOZd1gxFE-84" style="edgeStyle=orthogonalEdgeStyle;rounded=0;orthogonalLoop=1;jettySize=auto;html=1;shape=link;" edge="1" parent="WIyWlLk6GJQsqaUBKTNV-1" source="9GJHesz0LtEHOZd1gxFE-82" target="9GJHesz0LtEHOZd1gxFE-2">
          <mxGeometry relative="1" as="geometry" />
        </mxCell>
        <mxCell id="9GJHesz0LtEHOZd1gxFE-82" value="Alguel Ã© de TipoVeiculo" style="html=1;whiteSpace=wrap;aspect=fixed;shape=isoRectangle;" vertex="1" parent="WIyWlLk6GJQsqaUBKTNV-1">
          <mxGeometry x="210" y="-130" width="100" height="60" as="geometry" />
        </mxCell>
        <mxCell id="9GJHesz0LtEHOZd1gxFE-85" value="N" style="text;html=1;strokeColor=none;fillColor=none;align=center;verticalAlign=middle;whiteSpace=wrap;rounded=0;" vertex="1" parent="WIyWlLk6GJQsqaUBKTNV-1">
          <mxGeometry x="210" y="-155" width="60" height="30" as="geometry" />
        </mxCell>
        <mxCell id="9GJHesz0LtEHOZd1gxFE-86" value="N" style="text;html=1;strokeColor=none;fillColor=none;align=center;verticalAlign=middle;whiteSpace=wrap;rounded=0;" vertex="1" parent="WIyWlLk6GJQsqaUBKTNV-1">
          <mxGeometry x="250" y="-30" width="60" height="30" as="geometry" />
        </mxCell>
        <mxCell id="9GJHesz0LtEHOZd1gxFE-90" style="edgeStyle=orthogonalEdgeStyle;rounded=0;orthogonalLoop=1;jettySize=auto;html=1;entryX=1;entryY=0.5;entryDx=0;entryDy=0;shape=link;" edge="1" parent="WIyWlLk6GJQsqaUBKTNV-1" source="9GJHesz0LtEHOZd1gxFE-88" target="9GJHesz0LtEHOZd1gxFE-5">
          <mxGeometry relative="1" as="geometry">
            <Array as="points">
              <mxPoint x="1110" y="360" />
              <mxPoint x="1110" y="-260" />
            </Array>
          </mxGeometry>
        </mxCell>
        <mxCell id="9GJHesz0LtEHOZd1gxFE-88" value="Reserva Ã© de TipoVeiculo" style="html=1;whiteSpace=wrap;aspect=fixed;shape=isoRectangle;" vertex="1" parent="WIyWlLk6GJQsqaUBKTNV-1">
          <mxGeometry x="600" y="330" width="100" height="60" as="geometry" />
        </mxCell>
        <mxCell id="9GJHesz0LtEHOZd1gxFE-106" style="edgeStyle=orthogonalEdgeStyle;rounded=0;orthogonalLoop=1;jettySize=auto;html=1;endArrow=none;endFill=0;" edge="1" parent="WIyWlLk6GJQsqaUBKTNV-1" source="9GJHesz0LtEHOZd1gxFE-92">
          <mxGeometry relative="1" as="geometry">
            <mxPoint x="980" y="-360" as="targetPoint" />
          </mxGeometry>
        </mxCell>
        <mxCell id="9GJHesz0LtEHOZd1gxFE-92" value="DataFimAluguel" style="ellipse;whiteSpace=wrap;html=1;" vertex="1" parent="WIyWlLk6GJQsqaUBKTNV-1">
          <mxGeometry x="870" y="-390" width="100" height="60" as="geometry" />
        </mxCell>
        <mxCell id="9GJHesz0LtEHOZd1gxFE-108" value="" style="edgeStyle=orthogonalEdgeStyle;rounded=0;orthogonalLoop=1;jettySize=auto;html=1;endArrow=none;endFill=0;" edge="1" parent="WIyWlLk6GJQsqaUBKTNV-1" source="9GJHesz0LtEHOZd1gxFE-94">
          <mxGeometry relative="1" as="geometry">
            <mxPoint x="1000" y="-360" as="targetPoint" />
            <Array as="points">
              <mxPoint x="1000" y="-360" />
              <mxPoint x="1000" y="-360" />
            </Array>
          </mxGeometry>
        </mxCell>
        <mxCell id="9GJHesz0LtEHOZd1gxFE-94" value="Cliente" style="ellipse;whiteSpace=wrap;html=1;" vertex="1" parent="WIyWlLk6GJQsqaUBKTNV-1">
          <mxGeometry x="1010" y="-390" width="100" height="60" as="geometry" />
        </mxCell>
        <mxCell id="9GJHesz0LtEHOZd1gxFE-111" style="edgeStyle=orthogonalEdgeStyle;rounded=0;orthogonalLoop=1;jettySize=auto;html=1;endArrow=none;endFill=0;" edge="1" parent="WIyWlLk6GJQsqaUBKTNV-1" source="9GJHesz0LtEHOZd1gxFE-96">
          <mxGeometry relative="1" as="geometry">
            <mxPoint x="1000" y="-440" as="targetPoint" />
            <Array as="points">
              <mxPoint x="1041" y="-440" />
              <mxPoint x="1041" y="-439" />
              <mxPoint x="1000" y="-439" />
            </Array>
          </mxGeometry>
        </mxCell>
        <mxCell id="9GJHesz0LtEHOZd1gxFE-96" value="TipoVeiculo " style="ellipse;whiteSpace=wrap;html=1;" vertex="1" parent="WIyWlLk6GJQsqaUBKTNV-1">
          <mxGeometry x="1010" y="-470" width="100" height="60" as="geometry" />
        </mxCell>
        <mxCell id="9GJHesz0LtEHOZd1gxFE-97" value="Filial" style="ellipse;whiteSpace=wrap;html=1;" vertex="1" parent="WIyWlLk6GJQsqaUBKTNV-1">
          <mxGeometry x="1010" y="-550" width="100" height="60" as="geometry" />
        </mxCell>
        <mxCell id="9GJHesz0LtEHOZd1gxFE-105" style="edgeStyle=orthogonalEdgeStyle;rounded=0;orthogonalLoop=1;jettySize=auto;html=1;endArrow=none;endFill=0;" edge="1" parent="WIyWlLk6GJQsqaUBKTNV-1" source="9GJHesz0LtEHOZd1gxFE-99">
          <mxGeometry relative="1" as="geometry">
            <mxPoint x="980" y="-440.00000000000006" as="targetPoint" />
          </mxGeometry>
        </mxCell>
        <mxCell id="9GJHesz0LtEHOZd1gxFE-99" value="DataInicioAluguel" style="ellipse;whiteSpace=wrap;html=1;" vertex="1" parent="WIyWlLk6GJQsqaUBKTNV-1">
          <mxGeometry x="870" y="-470" width="100" height="60" as="geometry" />
        </mxCell>
        <mxCell id="9GJHesz0LtEHOZd1gxFE-104" style="edgeStyle=orthogonalEdgeStyle;rounded=0;orthogonalLoop=1;jettySize=auto;html=1;endArrow=none;endFill=0;" edge="1" parent="WIyWlLk6GJQsqaUBKTNV-1" source="9GJHesz0LtEHOZd1gxFE-100">
          <mxGeometry relative="1" as="geometry">
            <mxPoint x="980" y="-520" as="targetPoint" />
          </mxGeometry>
        </mxCell>
        <mxCell id="9GJHesz0LtEHOZd1gxFE-100" value="DataReserva" style="ellipse;whiteSpace=wrap;html=1;" vertex="1" parent="WIyWlLk6GJQsqaUBKTNV-1">
          <mxGeometry x="870" y="-550" width="100" height="60" as="geometry" />
        </mxCell>
        <mxCell id="9GJHesz0LtEHOZd1gxFE-101" value="NumeroReserva" style="ellipse;whiteSpace=wrap;html=1;" vertex="1" parent="WIyWlLk6GJQsqaUBKTNV-1">
          <mxGeometry x="870" y="-630" width="100" height="60" as="geometry" />
        </mxCell>
        <mxCell id="9GJHesz0LtEHOZd1gxFE-134" style="edgeStyle=orthogonalEdgeStyle;rounded=0;orthogonalLoop=1;jettySize=auto;html=1;endArrow=none;endFill=0;" edge="1" parent="WIyWlLk6GJQsqaUBKTNV-1" source="9GJHesz0LtEHOZd1gxFE-116">
          <mxGeometry relative="1" as="geometry">
            <mxPoint x="630" y="80" as="targetPoint" />
          </mxGeometry>
        </mxCell>
        <mxCell id="9GJHesz0LtEHOZd1gxFE-116" value="Placa" style="ellipse;whiteSpace=wrap;html=1;" vertex="1" parent="WIyWlLk6GJQsqaUBKTNV-1">
          <mxGeometry x="510" y="50" width="100" height="60" as="geometry" />
        </mxCell>
        <mxCell id="9GJHesz0LtEHOZd1gxFE-132" style="edgeStyle=orthogonalEdgeStyle;rounded=0;orthogonalLoop=1;jettySize=auto;html=1;endArrow=none;endFill=0;" edge="1" parent="WIyWlLk6GJQsqaUBKTNV-1" source="9GJHesz0LtEHOZd1gxFE-118">
          <mxGeometry relative="1" as="geometry">
            <mxPoint x="640" y="80" as="targetPoint" />
          </mxGeometry>
        </mxCell>
        <mxCell id="9GJHesz0LtEHOZd1gxFE-118" value="Tipo" style="ellipse;whiteSpace=wrap;html=1;" vertex="1" parent="WIyWlLk6GJQsqaUBKTNV-1">
          <mxGeometry x="660" y="50" width="100" height="60" as="geometry" />
        </mxCell>
        <mxCell id="9GJHesz0LtEHOZd1gxFE-133" style="edgeStyle=orthogonalEdgeStyle;rounded=0;orthogonalLoop=1;jettySize=auto;html=1;endArrow=none;endFill=0;" edge="1" parent="WIyWlLk6GJQsqaUBKTNV-1" source="9GJHesz0LtEHOZd1gxFE-120">
          <mxGeometry relative="1" as="geometry">
            <mxPoint x="630" y="150" as="targetPoint" />
          </mxGeometry>
        </mxCell>
        <mxCell id="9GJHesz0LtEHOZd1gxFE-120" value="Chassi" style="ellipse;whiteSpace=wrap;html=1;" vertex="1" parent="WIyWlLk6GJQsqaUBKTNV-1">
          <mxGeometry x="510" y="120" width="100" height="60" as="geometry" />
        </mxCell>
        <mxCell id="9GJHesz0LtEHOZd1gxFE-130" style="edgeStyle=orthogonalEdgeStyle;rounded=0;orthogonalLoop=1;jettySize=auto;html=1;endArrow=none;endFill=0;" edge="1" parent="WIyWlLk6GJQsqaUBKTNV-1" source="9GJHesz0LtEHOZd1gxFE-122">
          <mxGeometry relative="1" as="geometry">
            <mxPoint x="640" y="150" as="targetPoint" />
          </mxGeometry>
        </mxCell>
        <mxCell id="9GJHesz0LtEHOZd1gxFE-122" value="Cor" style="ellipse;whiteSpace=wrap;html=1;" vertex="1" parent="WIyWlLk6GJQsqaUBKTNV-1">
          <mxGeometry x="660" y="120" width="100" height="60" as="geometry" />
        </mxCell>
        <mxCell id="9GJHesz0LtEHOZd1gxFE-124" value="NumeroMotor" style="ellipse;whiteSpace=wrap;html=1;" vertex="1" parent="WIyWlLk6GJQsqaUBKTNV-1">
          <mxGeometry x="510" y="190" width="100" height="60" as="geometry" />
        </mxCell>
        <mxCell id="9GJHesz0LtEHOZd1gxFE-126" value="FilialAtual" style="ellipse;whiteSpace=wrap;html=1;" vertex="1" parent="WIyWlLk6GJQsqaUBKTNV-1">
          <mxGeometry x="660" y="190" width="100" height="60" as="geometry" />
        </mxCell>
        <mxCell id="9GJHesz0LtEHOZd1gxFE-149" style="edgeStyle=orthogonalEdgeStyle;rounded=0;orthogonalLoop=1;jettySize=auto;html=1;endArrow=none;endFill=0;" edge="1" parent="WIyWlLk6GJQsqaUBKTNV-1" source="9GJHesz0LtEHOZd1gxFE-135">
          <mxGeometry relative="1" as="geometry">
            <mxPoint x="120" y="135" as="targetPoint" />
          </mxGeometry>
        </mxCell>
        <mxCell id="9GJHesz0LtEHOZd1gxFE-135" value="TocaFitas" style="ellipse;whiteSpace=wrap;html=1;" vertex="1" parent="WIyWlLk6GJQsqaUBKTNV-1">
          <mxGeometry x="-30" y="105" width="100" height="60" as="geometry" />
        </mxCell>
        <mxCell id="9GJHesz0LtEHOZd1gxFE-150" style="edgeStyle=orthogonalEdgeStyle;rounded=0;orthogonalLoop=1;jettySize=auto;html=1;endArrow=none;endFill=0;" edge="1" parent="WIyWlLk6GJQsqaUBKTNV-1" source="9GJHesz0LtEHOZd1gxFE-136">
          <mxGeometry relative="1" as="geometry">
            <mxPoint x="120" y="215" as="targetPoint" />
          </mxGeometry>
        </mxCell>
        <mxCell id="9GJHesz0LtEHOZd1gxFE-136" value="CD" style="ellipse;whiteSpace=wrap;html=1;" vertex="1" parent="WIyWlLk6GJQsqaUBKTNV-1">
          <mxGeometry x="-30" y="185" width="100" height="60" as="geometry" />
        </mxCell>
        <mxCell id="9GJHesz0LtEHOZd1gxFE-147" style="edgeStyle=orthogonalEdgeStyle;rounded=0;orthogonalLoop=1;jettySize=auto;html=1;endArrow=none;endFill=0;" edge="1" parent="WIyWlLk6GJQsqaUBKTNV-1" source="9GJHesz0LtEHOZd1gxFE-137">
          <mxGeometry relative="1" as="geometry">
            <mxPoint x="120" y="-50" as="targetPoint" />
          </mxGeometry>
        </mxCell>
        <mxCell id="9GJHesz0LtEHOZd1gxFE-137" value="ArCondicionado" style="ellipse;whiteSpace=wrap;html=1;" vertex="1" parent="WIyWlLk6GJQsqaUBKTNV-1">
          <mxGeometry x="-30" y="-80" width="100" height="60" as="geometry" />
        </mxCell>
        <mxCell id="9GJHesz0LtEHOZd1gxFE-148" style="edgeStyle=orthogonalEdgeStyle;rounded=0;orthogonalLoop=1;jettySize=auto;html=1;endArrow=none;endFill=0;" edge="1" parent="WIyWlLk6GJQsqaUBKTNV-1" source="9GJHesz0LtEHOZd1gxFE-138">
          <mxGeometry relative="1" as="geometry">
            <mxPoint x="120" y="45" as="targetPoint" />
          </mxGeometry>
        </mxCell>
        <mxCell id="9GJHesz0LtEHOZd1gxFE-138" value="Radio" style="ellipse;whiteSpace=wrap;html=1;" vertex="1" parent="WIyWlLk6GJQsqaUBKTNV-1">
          <mxGeometry x="-30" y="15" width="100" height="60" as="geometry" />
        </mxCell>
        <mxCell id="9GJHesz0LtEHOZd1gxFE-152" style="edgeStyle=orthogonalEdgeStyle;rounded=0;orthogonalLoop=1;jettySize=auto;html=1;endArrow=none;endFill=0;" edge="1" parent="WIyWlLk6GJQsqaUBKTNV-1" source="9GJHesz0LtEHOZd1gxFE-139">
          <mxGeometry relative="1" as="geometry">
            <mxPoint x="120" y="395" as="targetPoint" />
          </mxGeometry>
        </mxCell>
        <mxCell id="9GJHesz0LtEHOZd1gxFE-139" value="CambioAutomatico" style="ellipse;whiteSpace=wrap;html=1;" vertex="1" parent="WIyWlLk6GJQsqaUBKTNV-1">
          <mxGeometry x="-30" y="365" width="100" height="60" as="geometry" />
        </mxCell>
        <mxCell id="9GJHesz0LtEHOZd1gxFE-143" style="edgeStyle=orthogonalEdgeStyle;rounded=0;orthogonalLoop=1;jettySize=auto;html=1;endArrow=none;endFill=0;" edge="1" parent="WIyWlLk6GJQsqaUBKTNV-1" source="9GJHesz0LtEHOZd1gxFE-140">
          <mxGeometry relative="1" as="geometry">
            <mxPoint x="120" y="30" as="targetPoint" />
          </mxGeometry>
        </mxCell>
        <mxCell id="9GJHesz0LtEHOZd1gxFE-140" value="CapacidadeCarga" style="ellipse;whiteSpace=wrap;html=1;" vertex="1" parent="WIyWlLk6GJQsqaUBKTNV-1">
          <mxGeometry x="-30" y="445" width="100" height="60" as="geometry" />
        </mxCell>
        <mxCell id="9GJHesz0LtEHOZd1gxFE-151" style="edgeStyle=orthogonalEdgeStyle;rounded=0;orthogonalLoop=1;jettySize=auto;html=1;endArrow=none;endFill=0;" edge="1" parent="WIyWlLk6GJQsqaUBKTNV-1" source="9GJHesz0LtEHOZd1gxFE-141">
          <mxGeometry relative="1" as="geometry">
            <mxPoint x="120" y="305" as="targetPoint" />
          </mxGeometry>
        </mxCell>
        <mxCell id="9GJHesz0LtEHOZd1gxFE-141" value="DirecaoHidraulica" style="ellipse;whiteSpace=wrap;html=1;" vertex="1" parent="WIyWlLk6GJQsqaUBKTNV-1">
          <mxGeometry x="-30" y="275" width="100" height="60" as="geometry" />
        </mxCell>
      </root>
    </mxGraphModel>
  </diagram>
</mxfile>
